<?xml version="1.0" encoding="UTF-8" standalone="no"?>
<!-- Created with Inkscape (http://www.inkscape.org/) -->

<svg
   xmlns:dc="http://purl.org/dc/elements/1.1/"
   xmlns:cc="http://creativecommons.org/ns#"
   xmlns:rdf="http://www.w3.org/1999/02/22-rdf-syntax-ns#"
   xmlns:svg="http://www.w3.org/2000/svg"
   xmlns="http://www.w3.org/2000/svg"
   xmlns:sodipodi="http://sodipodi.sourceforge.net/DTD/sodipodi-0.dtd"
   xmlns:inkscape="http://www.inkscape.org/namespaces/inkscape"
   version="1.1"
   id="svg815"
   xml:space="preserve"
   width="576"
   height="384"
   viewBox="0 0 576 384"
   sodipodi:docname="Cross-section_NN_corrected_axis.svg"
   inkscape:version="0.92.4 (5da689c313, 2019-01-14)"><metadata
     id="metadata821"><rdf:RDF><cc:Work
         rdf:about=""><dc:format>image/svg+xml</dc:format><dc:type
           rdf:resource="http://purl.org/dc/dcmitype/StillImage" /><dc:title></dc:title></cc:Work></rdf:RDF></metadata><defs
     id="defs819"><clipPath
       clipPathUnits="userSpaceOnUse"
       id="clipPath917"><path
         d="M 54,36 H 388.8 V 253.44 H 54 Z"
         id="path915"
         inkscape:connector-curvature="0" /></clipPath><clipPath
       clipPathUnits="userSpaceOnUse"
       id="clipPath927"><path
         d="M 54,36 H 388.8 V 253.44 H 54 Z"
         id="path925"
         inkscape:connector-curvature="0" /></clipPath><clipPath
       clipPathUnits="userSpaceOnUse"
       id="clipPath937"><path
         d="M 54,36 H 388.8 V 253.44 H 54 Z"
         id="path935"
         inkscape:connector-curvature="0" /></clipPath><clipPath
       clipPathUnits="userSpaceOnUse"
       id="clipPath947"><path
         d="M 54,36 H 388.8 V 253.44 H 54 Z"
         id="path945"
         inkscape:connector-curvature="0" /></clipPath><clipPath
       clipPathUnits="userSpaceOnUse"
       id="clipPath957"><path
         d="M 54,36 H 388.8 V 253.44 H 54 Z"
         id="path955"
         inkscape:connector-curvature="0" /></clipPath><clipPath
       clipPathUnits="userSpaceOnUse"
       id="clipPath967"><path
         d="M 54,36 H 388.8 V 253.44 H 54 Z"
         id="path965"
         inkscape:connector-curvature="0" /></clipPath><clipPath
       clipPathUnits="userSpaceOnUse"
       id="clipPath977"><path
         d="M 54,36 H 388.8 V 253.44 H 54 Z"
         id="path975"
         inkscape:connector-curvature="0" /></clipPath></defs><sodipodi:namedview
     pagecolor="#ffffff"
     bordercolor="#666666"
     borderopacity="1"
     objecttolerance="10"
     gridtolerance="10"
     guidetolerance="10"
     inkscape:pageopacity="0"
     inkscape:pageshadow="2"
     inkscape:window-width="1920"
     inkscape:window-height="986"
     id="namedview817"
     showgrid="false"
     inkscape:zoom="1.9869792"
     inkscape:cx="288"
     inkscape:cy="192"
     inkscape:window-x="-11"
     inkscape:window-y="-11"
     inkscape:window-maximized="1"
     inkscape:current-layer="g823" /><g
     id="g823"
     inkscape:groupmode="layer"
     inkscape:label="Cross-section_NN"
     transform="matrix(1.3333333,0,0,-1.3333333,0,384)"><path
       d="M 0,0 H 432 V 288 H 0 Z"
       style="fill:#ffffff;fill-opacity:1;fill-rule:nonzero;stroke:none"
       id="path825"
       inkscape:connector-curvature="0" /><path
       d="M 54,36 H 388.8 V 253.44 H 54 Z"
       style="fill:#ffffff;fill-opacity:1;fill-rule:nonzero;stroke:none"
       id="path827"
       inkscape:connector-curvature="0" /><path
       d="M 69.218182,36 V 32.5"
       style="fill:#000000;fill-opacity:1;fill-rule:nonzero;stroke:#000000;stroke-width:0.80000001;stroke-linecap:butt;stroke-linejoin:round;stroke-miterlimit:10;stroke-dasharray:none;stroke-opacity:1"
       id="path829"
       inkscape:connector-curvature="0" /><text
       transform="matrix(1,0,0,-1,61.265057,21.40625)"
       style="font-variant:normal;font-weight:normal;font-size:10px;font-family:DejaVuSans;-inkscape-font-specification:DejaVuSans;writing-mode:lr-tb;fill:#000000;fill-opacity:1;fill-rule:nonzero;stroke:none"
       id="text833"><tspan
         x="0 6.3600001 9.54"
         y="0"
         sodipodi:role="line"
         id="tspan831">0.0</tspan></text>
<path
       d="M 130.09091,36 V 32.5"
       style="fill:#000000;fill-opacity:1;fill-rule:nonzero;stroke:#000000;stroke-width:0.80000001;stroke-linecap:butt;stroke-linejoin:round;stroke-miterlimit:10;stroke-dasharray:none;stroke-opacity:1"
       id="path835"
       inkscape:connector-curvature="0" /><text
       transform="matrix(1,0,0,-1,122.13778,21.40625)"
       style="font-variant:normal;font-weight:normal;font-size:10px;font-family:DejaVuSans;-inkscape-font-specification:DejaVuSans;writing-mode:lr-tb;fill:#000000;fill-opacity:1;fill-rule:nonzero;stroke:none"
       id="text839"><tspan
         x="0 6.3600001 9.54"
         y="0"
         sodipodi:role="line"
         id="tspan837">0.2</tspan></text>
<path
       d="M 190.96364,36 V 32.5"
       style="fill:#000000;fill-opacity:1;fill-rule:nonzero;stroke:#000000;stroke-width:0.80000001;stroke-linecap:butt;stroke-linejoin:round;stroke-miterlimit:10;stroke-dasharray:none;stroke-opacity:1"
       id="path841"
       inkscape:connector-curvature="0" /><text
       transform="matrix(1,0,0,-1,183.01051,21.40625)"
       style="font-variant:normal;font-weight:normal;font-size:10px;font-family:DejaVuSans;-inkscape-font-specification:DejaVuSans;writing-mode:lr-tb;fill:#000000;fill-opacity:1;fill-rule:nonzero;stroke:none"
       id="text845"><tspan
         x="0 6.3600001 9.54"
         y="0"
         sodipodi:role="line"
         id="tspan843">0.4</tspan></text>
<path
       d="M 251.83636,36 V 32.5"
       style="fill:#000000;fill-opacity:1;fill-rule:nonzero;stroke:#000000;stroke-width:0.80000001;stroke-linecap:butt;stroke-linejoin:round;stroke-miterlimit:10;stroke-dasharray:none;stroke-opacity:1"
       id="path847"
       inkscape:connector-curvature="0" /><text
       transform="matrix(1,0,0,-1,243.88324,21.40625)"
       style="font-variant:normal;font-weight:normal;font-size:10px;font-family:DejaVuSans;-inkscape-font-specification:DejaVuSans;writing-mode:lr-tb;fill:#000000;fill-opacity:1;fill-rule:nonzero;stroke:none"
       id="text851"><tspan
         x="0 6.3600001 9.54"
         y="0"
         sodipodi:role="line"
         id="tspan849">0.6</tspan></text>
<path
       d="M 312.70909,36 V 32.5"
       style="fill:#000000;fill-opacity:1;fill-rule:nonzero;stroke:#000000;stroke-width:0.80000001;stroke-linecap:butt;stroke-linejoin:round;stroke-miterlimit:10;stroke-dasharray:none;stroke-opacity:1"
       id="path853"
       inkscape:connector-curvature="0" /><text
       transform="matrix(1,0,0,-1,304.75597,21.40625)"
       style="font-variant:normal;font-weight:normal;font-size:10px;font-family:DejaVuSans;-inkscape-font-specification:DejaVuSans;writing-mode:lr-tb;fill:#000000;fill-opacity:1;fill-rule:nonzero;stroke:none"
       id="text857"><tspan
         x="0 6.3600001 9.54"
         y="0"
         sodipodi:role="line"
         id="tspan855">0.8</tspan></text>
<path
       d="M 373.58182,36 V 32.5"
       style="fill:#000000;fill-opacity:1;fill-rule:nonzero;stroke:#000000;stroke-width:0.80000001;stroke-linecap:butt;stroke-linejoin:round;stroke-miterlimit:10;stroke-dasharray:none;stroke-opacity:1"
       id="path859"
       inkscape:connector-curvature="0" /><text
       transform="matrix(1,0,0,-1,365.62869,21.40625)"
       style="font-variant:normal;font-weight:normal;font-size:10px;font-family:DejaVuSans;-inkscape-font-specification:DejaVuSans;writing-mode:lr-tb;fill:#000000;fill-opacity:1;fill-rule:nonzero;stroke:none"
       id="text863"><tspan
         x="0 6.3600001 9.54"
         y="0"
         sodipodi:role="line"
         id="tspan861">1.0</tspan></text>
<g
       id="g865"
       transform="translate(218.4,7.734375)"><text
         transform="matrix(1,0,0,-1,0,0.53125)"
         style="font-style:italic;font-variant:normal;font-size:10px;font-family:DejaVuSans;-inkscape-font-specification:DejaVuSans-Oblique;writing-mode:lr-tb;fill:#000000;fill-opacity:1;fill-rule:nonzero;stroke:none"
         id="text869"><tspan
           x="0"
           y="0"
           id="tspan867">x</tspan></text>
</g><path
       d="M 54,56.844501 H 50.5"
       style="fill:#000000;fill-opacity:1;fill-rule:nonzero;stroke:#000000;stroke-width:0.80000001;stroke-linecap:butt;stroke-linejoin:round;stroke-miterlimit:10;stroke-dasharray:none;stroke-opacity:1"
       id="path871"
       inkscape:connector-curvature="0" /><text
       transform="matrix(1,0,0,-1,31.09375,53.047626)"
       style="font-variant:normal;font-weight:normal;font-size:10px;font-family:DejaVuSans;-inkscape-font-specification:DejaVuSans;writing-mode:lr-tb;fill:#000000;fill-opacity:1;fill-rule:nonzero;stroke:none"
       id="text875"><tspan
         x="0 6.3600001 9.54"
         y="0"
         sodipodi:role="line"
         id="tspan873">0.0</tspan></text>
<path
       d="M 54,94.206069 H 50.5"
       style="fill:#000000;fill-opacity:1;fill-rule:nonzero;stroke:#000000;stroke-width:0.80000001;stroke-linecap:butt;stroke-linejoin:round;stroke-miterlimit:10;stroke-dasharray:none;stroke-opacity:1"
       id="path877"
       inkscape:connector-curvature="0" /><text
       transform="matrix(1,0,0,-1,31.09375,90.409194)"
       style="font-variant:normal;font-weight:normal;font-size:10px;font-family:DejaVuSans;-inkscape-font-specification:DejaVuSans;writing-mode:lr-tb;fill:#000000;fill-opacity:1;fill-rule:nonzero;stroke:none"
       id="text881"><tspan
         x="0 6.3600001 9.54"
         y="0"
         sodipodi:role="line"
         id="tspan879">0.2</tspan></text>
<path
       d="M 54,131.56764 H 50.5"
       style="fill:#000000;fill-opacity:1;fill-rule:nonzero;stroke:#000000;stroke-width:0.80000001;stroke-linecap:butt;stroke-linejoin:round;stroke-miterlimit:10;stroke-dasharray:none;stroke-opacity:1"
       id="path883"
       inkscape:connector-curvature="0" /><text
       transform="matrix(1,0,0,-1,31.09375,127.77076)"
       style="font-variant:normal;font-weight:normal;font-size:10px;font-family:DejaVuSans;-inkscape-font-specification:DejaVuSans;writing-mode:lr-tb;fill:#000000;fill-opacity:1;fill-rule:nonzero;stroke:none"
       id="text887"><tspan
         x="0 6.3600001 9.54"
         y="0"
         sodipodi:role="line"
         id="tspan885">0.4</tspan></text>
<path
       d="M 54,168.92921 H 50.5"
       style="fill:#000000;fill-opacity:1;fill-rule:nonzero;stroke:#000000;stroke-width:0.80000001;stroke-linecap:butt;stroke-linejoin:round;stroke-miterlimit:10;stroke-dasharray:none;stroke-opacity:1"
       id="path889"
       inkscape:connector-curvature="0" /><text
       transform="matrix(1,0,0,-1,31.09375,165.13233)"
       style="font-variant:normal;font-weight:normal;font-size:10px;font-family:DejaVuSans;-inkscape-font-specification:DejaVuSans;writing-mode:lr-tb;fill:#000000;fill-opacity:1;fill-rule:nonzero;stroke:none"
       id="text893"><tspan
         x="0 6.3600001 9.54"
         y="0"
         sodipodi:role="line"
         id="tspan891">0.6</tspan></text>
<path
       d="M 54,206.29077 H 50.5"
       style="fill:#000000;fill-opacity:1;fill-rule:nonzero;stroke:#000000;stroke-width:0.80000001;stroke-linecap:butt;stroke-linejoin:round;stroke-miterlimit:10;stroke-dasharray:none;stroke-opacity:1"
       id="path895"
       inkscape:connector-curvature="0" /><text
       transform="matrix(1,0,0,-1,31.09375,202.4939)"
       style="font-variant:normal;font-weight:normal;font-size:10px;font-family:DejaVuSans;-inkscape-font-specification:DejaVuSans;writing-mode:lr-tb;fill:#000000;fill-opacity:1;fill-rule:nonzero;stroke:none"
       id="text899"><tspan
         x="0 6.3600001 9.54"
         y="0"
         sodipodi:role="line"
         id="tspan897">0.8</tspan></text>
<path
       d="M 54,243.65234 H 50.5"
       style="fill:#000000;fill-opacity:1;fill-rule:nonzero;stroke:#000000;stroke-width:0.80000001;stroke-linecap:butt;stroke-linejoin:round;stroke-miterlimit:10;stroke-dasharray:none;stroke-opacity:1"
       id="path901"
       inkscape:connector-curvature="0" /><text
       transform="matrix(1,0,0,-1,31.09375,239.85547)"
       style="font-variant:normal;font-weight:normal;font-size:10px;font-family:DejaVuSans;-inkscape-font-specification:DejaVuSans;writing-mode:lr-tb;fill:#000000;fill-opacity:1;fill-rule:nonzero;stroke:none"
       id="text905"><tspan
         x="0 6.3600001 9.54"
         y="0"
         sodipodi:role="line"
         id="tspan903">1.0</tspan></text>
<text
       transform="matrix(0,1,1,0,25.015625,134.07937)"
       style="font-variant:normal;font-weight:normal;font-size:10px;font-family:DejaVuSans;-inkscape-font-specification:DejaVuSans;writing-mode:lr-tb;fill:#000000;fill-opacity:1;fill-rule:nonzero;stroke:none"
       id="text909"><tspan
         x="0"
         y="0"
         sodipodi:role="line"
         id="tspan907"
         style="-inkscape-font-specification:'DejaVuSans Italic';font-family:DejaVuSans;font-weight:normal;font-style:italic;font-stretch:normal;font-variant:normal">u(x,t)</tspan></text>
<g
       id="g911"><g
         id="g913"
         clip-path="url(#clipPath917)"><path
           d="m 69.218182,56.844501 6.211503,11.96882 6.211502,11.919637 6.211503,11.821474 6.211503,11.674738 6.211507,11.48002 6.2115,11.23813 6.2115,10.95007 6.2115,10.617 6.21151,10.24031 6.2115,9.82154 6.2115,9.36241 6.2115,8.86481 6.21151,8.33078 6.2115,7.76251 6.2115,7.16236 6.21151,6.53276 6.2115,5.87633 6.2115,5.19575 6.2115,4.49381 6.21151,3.77341 6.2115,3.03751 6.2115,2.28912 6.21151,1.53132 6.2115,0.76724 h 6.2115 l 6.2115,-0.76724 6.21151,-1.53132 6.2115,-2.28912 6.2115,-3.03751 6.2115,-3.77341 6.21151,-4.49381 6.2115,-5.19575 6.2115,-5.87633 6.21151,-6.53276 6.2115,-7.16236 6.2115,-7.76251 6.21151,-8.33078 6.2115,-8.86481 6.2115,-9.36241 6.2115,-9.82154 6.21151,-10.24031 6.2115,-10.617 6.2115,-10.95007 6.2115,-11.23813 6.21151,-11.48002 6.2115,-11.674738 6.2115,-11.821474 6.2115,-11.919637 6.21151,-11.96882"
           style="fill:none;stroke:#1f77b4;stroke-width:1.5;stroke-linecap:square;stroke-linejoin:round;stroke-miterlimit:10;stroke-dasharray:none;stroke-opacity:1"
           id="path919"
           inkscape:connector-curvature="0" /></g></g><g
       id="g921"><g
         id="g923"
         clip-path="url(#clipPath927)"><path
           d="m 69.218182,56.844501 6.211503,10.062984 6.211502,10.03523 6.211503,9.964831 6.211503,9.852203 6.211507,9.697931 6.2115,9.50278 6.2115,9.26762 6.2115,8.99357 6.21151,8.68178 6.2115,8.33361 6.2115,7.95054 6.2115,7.53415 6.21151,7.08617 6.2115,6.60841 6.2115,6.10281 6.21151,5.57141 6.2115,5.01635 6.2115,4.43985 6.2115,3.84425 6.21151,3.23194 6.2115,2.60541 6.2115,1.96725 6.21151,1.32007 6.2115,0.66657 6.2115,0.01 6.2115,-0.64834 6.21151,-1.30412 6.2115,-1.95498 6.2115,-2.59808 6.2115,-3.23055 6.21151,-3.84954 6.2115,-4.45227 6.2115,-5.03596 6.21151,-5.59791 6.2115,-6.13553 6.2115,-6.64627 6.21151,-7.12775 6.2115,-7.57765 6.2115,-7.99383 6.2115,-8.37429 6.21151,-8.71716 6.2115,-9.02078 6.2115,-9.28366 6.2115,-9.50445 6.21151,-9.682056 6.2115,-9.815537 6.2115,-9.904165 6.2115,-9.947406 6.21151,-9.944935"
           style="fill:none;stroke:#ff7f0e;stroke-width:1.5;stroke-linecap:square;stroke-linejoin:round;stroke-miterlimit:10;stroke-dasharray:none;stroke-opacity:1"
           id="path929"
           inkscape:connector-curvature="0" /></g></g><g
       id="g931"><g
         id="g933"
         clip-path="url(#clipPath937)"><path
           d="m 69.218182,56.844501 6.211503,4.615623 6.211502,4.628367 6.211503,4.615468 6.211503,4.577232 6.211507,4.514151 6.2115,4.426875 6.2115,4.316223 6.2115,4.183153 6.21151,4.028758 6.2115,3.854249 6.2115,3.66093 6.2115,3.4502 6.21151,3.22352 6.2115,2.98235 6.2115,2.72826 6.21151,2.46274 6.2115,2.18733 6.2115,1.90352 6.2115,1.61278 6.21151,1.31652 6.2115,1.01612 6.2115,0.71291 6.21151,0.40817 6.2115,0.10314 6.2115,-0.20097 6.2115,-0.50294 6.21151,-0.80162 6.2115,-1.09579 6.2115,-1.38426 6.2115,-1.66577 6.21151,-1.93907 6.2115,-2.20284 6.2115,-2.45573 6.21151,-2.69631 6.2115,-2.92319 6.2115,-3.13488 6.21151,-3.32991 6.2115,-3.5068 6.2115,-3.664101 6.2115,-3.800356 6.21151,-3.914182 6.2115,-4.004238 6.2115,-4.069249 6.2115,-4.108016 6.21151,-4.119409 6.2115,-4.10238 6.2115,-4.055956 6.2115,-3.979234 6.21151,-3.871388"
           style="fill:none;stroke:#2ca02c;stroke-width:1.5;stroke-linecap:square;stroke-linejoin:round;stroke-miterlimit:10;stroke-dasharray:none;stroke-opacity:1"
           id="path939"
           inkscape:connector-curvature="0" /></g></g><g
       id="g941"><g
         id="g943"
         clip-path="url(#clipPath947)"><path
           d="m 69.218182,56.844501 6.211503,0.517841 6.211502,0.549778 6.211503,0.575278 6.211503,0.593581 6.211507,0.604105 6.2115,0.606432 6.2115,0.60032 6.2115,0.585694 6.21151,0.562649 6.2115,0.53144 6.2115,0.492479 6.2115,0.446326 6.21151,0.393682 6.2115,0.335372 6.2115,0.272332 6.21151,0.205595 6.2115,0.136266 6.2115,0.0655 6.2115,-0.0055 6.21151,-0.07557 6.2115,-0.143534 6.2115,-0.208288 6.21151,-0.268813 6.2115,-0.324198 6.2115,-0.373673 6.2115,-0.41662 6.21151,-0.452604 6.2115,-0.481359 6.2115,-0.502812 6.2115,-0.51705 6.21151,-0.524314 6.2115,-0.524957 6.2115,-0.519413 6.21151,-0.508135 6.2115,-0.49155 6.2115,-0.469999 6.21151,-0.443679 6.2115,-0.412603 6.2115,-0.376547 6.2115,-0.335039 6.21151,-0.287338 6.2115,-0.232435 6.2115,-0.169086 6.2115,-0.09583 6.21151,-0.01102 6.2115,0.08708 6.2115,0.200304 6.2115,0.330485 6.21151,0.47942"
           style="fill:none;stroke:#d62728;stroke-width:1.5;stroke-linecap:square;stroke-linejoin:round;stroke-miterlimit:10;stroke-dasharray:none;stroke-opacity:1"
           id="path949"
           inkscape:connector-curvature="0" /></g></g><g
       id="g951"><g
         id="g953"
         clip-path="url(#clipPath957)"><path
           d="m 69.218182,56.844501 6.211503,-0.63432 6.211502,-0.649137 6.211503,-0.64672 6.211503,-0.629039 6.211507,-0.597946 6.2115,-0.555191 6.2115,-0.502431 6.2115,-0.441254 6.21151,-0.373188 6.2115,-0.299731 6.2115,-0.222354 6.2115,-0.142531 6.21151,-0.06175 6.2115,0.0185 6.2115,0.09669 6.21151,0.171281 6.2115,0.240751 6.2115,0.303597 6.2115,0.35839 6.21151,0.40381 6.2115,0.438711 6.2115,0.462169 6.21151,0.473538 6.2115,0.47251 6.2115,0.459142 6.2115,0.433888 6.21151,0.397608 6.2115,0.351545 6.2115,0.297308 6.2115,0.236804 6.21151,0.17219 6.2115,0.105784 6.2115,0.04 6.21151,-0.02273 6.2115,-0.08005 6.2115,-0.129706 6.21151,-0.169633 6.2115,-0.197967 6.2115,-0.213089 6.2115,-0.213622 6.21151,-0.198444 6.2115,-0.166669 6.2115,-0.117634 6.2115,-0.05087 6.21151,0.03391 6.2115,0.136886 6.2115,0.258115 6.2115,0.397593 6.21151,0.555283"
           style="fill:none;stroke:#9467bd;stroke-width:1.5;stroke-linecap:square;stroke-linejoin:round;stroke-miterlimit:10;stroke-dasharray:none;stroke-opacity:1"
           id="path959"
           inkscape:connector-curvature="0" /></g></g><g
       id="g961"><g
         id="g963"
         clip-path="url(#clipPath967)"><path
           d="m 69.218182,56.844501 6.211503,-0.825816 6.211502,-0.863632 6.211503,-0.863504 6.211503,-0.830622 6.211507,-0.770239 6.2115,-0.687623 6.2115,-0.587995 6.2115,-0.476446 6.21151,-0.357844 6.2115,-0.236741 6.2115,-0.117281 6.2115,-0.0031 6.21151,0.102705 6.2115,0.19769 6.2115,0.280023 6.21151,0.348511 6.2115,0.402564 6.2115,0.442143 6.2115,0.467689 6.21151,0.480042 6.2115,0.480354 6.2115,0.47 6.21151,0.450497 6.2115,0.423436 6.2115,0.390407 6.2115,0.352961 6.21151,0.312568 6.2115,0.27058 6.2115,0.228229 6.2115,0.186601 6.21151,0.146645 6.2115,0.109164 6.2115,0.07483 6.21151,0.04418 6.2115,0.01762 6.2115,-0.0045 6.21151,-0.0221 6.2115,-0.03497 6.2115,-0.04314 6.2115,-0.04667 6.21151,-0.04569 6.2115,-0.04038 6.2115,-0.03097 6.2115,-0.01772 6.21151,-8.76e-4 6.2115,0.01929 6.2115,0.04257 6.2115,0.06878 6.21151,0.09783"
           style="fill:none;stroke:#8c564b;stroke-width:1.5;stroke-linecap:square;stroke-linejoin:round;stroke-miterlimit:10;stroke-dasharray:none;stroke-opacity:1"
           id="path969"
           inkscape:connector-curvature="0" /></g></g><g
       id="g971"><g
         id="g973"
         clip-path="url(#clipPath977)"><path
           d="m 69.218182,56.844501 6.211503,0.595555 6.211502,0.390137 6.211503,0.215234 6.211503,0.06567 6.211507,-0.06286 6.2115,-0.173832 6.2115,-0.269993 6.2115,-0.353433 6.21151,-0.425703 6.2115,-0.487903 6.2115,-0.540789 6.2115,-0.584862 6.21151,-0.620439 6.2115,-0.647726 6.2115,-0.666865 6.21151,-0.677971 6.2115,-0.681171 6.2115,-0.676609 6.2115,-0.66447 6.21151,-0.64498 6.2115,-0.618407 6.2115,-0.585062 6.21151,-0.545293 6.2115,-0.499486 6.2115,-0.448054 6.2115,-0.39144 6.21151,-0.330104 6.2115,-0.264533 6.2115,-0.195229 6.2115,-0.122714 6.21151,-0.04753 6.2115,0.02976 6.2115,0.108568 6.21151,0.188285 6.2115,0.268262 6.2115,0.34782 6.21151,0.426238 6.2115,0.502745 6.2115,0.576525 6.2115,0.6467 6.21151,0.712334 6.2115,0.772423 6.2115,0.825895 6.2115,0.871611 6.21151,0.908356 6.2115,0.93485 6.2115,0.949749 6.2115,0.951647 6.21151,0.939098"
           style="fill:none;stroke:#e377c2;stroke-width:1.5;stroke-linecap:square;stroke-linejoin:round;stroke-miterlimit:10;stroke-dasharray:none;stroke-opacity:1"
           id="path979"
           inkscape:connector-curvature="0" /></g></g><g
       id="g981"><path
         d="M 54,36 V 253.44"
         style="fill:none;stroke:#000000;stroke-width:0.80000001;stroke-linecap:square;stroke-linejoin:miter;stroke-miterlimit:10;stroke-dasharray:none;stroke-opacity:1"
         id="path983"
         inkscape:connector-curvature="0" /><path
         d="M 388.8,36 V 253.44"
         style="fill:none;stroke:#000000;stroke-width:0.80000001;stroke-linecap:square;stroke-linejoin:miter;stroke-miterlimit:10;stroke-dasharray:none;stroke-opacity:1"
         id="path985"
         inkscape:connector-curvature="0" /><path
         d="M 54,36 H 388.8"
         style="fill:none;stroke:#000000;stroke-width:0.80000001;stroke-linecap:square;stroke-linejoin:miter;stroke-miterlimit:10;stroke-dasharray:none;stroke-opacity:1"
         id="path987"
         inkscape:connector-curvature="0" /><path
         d="M 54,253.44 H 388.8"
         style="fill:none;stroke:#000000;stroke-width:0.80000001;stroke-linecap:square;stroke-linejoin:miter;stroke-miterlimit:10;stroke-dasharray:none;stroke-opacity:1"
         id="path989"
         inkscape:connector-curvature="0" /><path
         d="m 291.8,142.73687 h 90 c 1.33333,0 2,0.66667 2,2 V 246.44 c 0,1.33333 -0.66667,2 -2,2 h -90 c -1.33333,0 -2,-0.66667 -2,-2 V 144.73687 c 0,-1.33333 0.66667,-2 2,-2 z"
         style="fill:#ffffff;fill-opacity:0.8;fill-rule:nonzero;stroke:#cccccc;stroke-width:1;stroke-linecap:butt;stroke-linejoin:miter;stroke-miterlimit:10;stroke-dasharray:none;stroke-opacity:0.8"
         id="path991"
         inkscape:connector-curvature="0" /><path
         d="m 293.8,240.34625 h 20"
         style="fill:none;stroke:#1f77b4;stroke-width:1.5;stroke-linecap:square;stroke-linejoin:round;stroke-miterlimit:10;stroke-dasharray:none;stroke-opacity:1"
         id="path993"
         inkscape:connector-curvature="0" /><g
         id="g995"
         transform="translate(321.8,236.84625)"><text
           transform="matrix(1,0,0,-1,0,0.578125)"
           style="font-style:italic;font-variant:normal;font-size:10px;font-family:DejaVuSans;-inkscape-font-specification:DejaVuSans-Oblique;writing-mode:lr-tb;fill:#000000;fill-opacity:1;fill-rule:nonzero;stroke:none"
           id="text999"><tspan
             x="0"
             y="0"
             id="tspan997">t</tspan></text>
<text
           transform="matrix(1,0,0,-1,5.8691406,0.578125)"
           style="font-variant:normal;font-weight:normal;font-size:10px;font-family:DejaVuSans;-inkscape-font-specification:DejaVuSans;writing-mode:lr-tb;fill:#000000;fill-opacity:1;fill-rule:nonzero;stroke:none"
           id="text1003"><tspan
             x="0 10.327148"
             y="0"
             sodipodi:role="line"
             id="tspan1001">=0</tspan></text>
</g><path
         d="m 293.8,225.67437 h 20"
         style="fill:none;stroke:#ff7f0e;stroke-width:1.5;stroke-linecap:square;stroke-linejoin:round;stroke-miterlimit:10;stroke-dasharray:none;stroke-opacity:1"
         id="path1005"
         inkscape:connector-curvature="0" /><g
         id="g1007"
         transform="translate(321.8,222.17437)"><text
           transform="matrix(1,0,0,-1,0,0.578125)"
           style="font-style:italic;font-variant:normal;font-size:10px;font-family:DejaVuSans;-inkscape-font-specification:DejaVuSans-Oblique;writing-mode:lr-tb;fill:#000000;fill-opacity:1;fill-rule:nonzero;stroke:none"
           id="text1011"><tspan
             x="0"
             y="0"
             id="tspan1009">t</tspan></text>
<text
           transform="matrix(1,0,0,-1,5.8691406,0.578125)"
           style="font-variant:normal;font-weight:normal;font-size:10px;font-family:DejaVuSans;-inkscape-font-specification:DejaVuSans;writing-mode:lr-tb;fill:#000000;fill-opacity:1;fill-rule:nonzero;stroke:none"
           id="text1015"><tspan
             x="0 10.327148 16.689453 19.868164 26.230469 32.592773 38.955078 45.317383"
             y="0"
             sodipodi:role="line"
             id="tspan1013">=0.04082</tspan></text>
</g><path
         d="m 293.8,211.0025 h 20"
         style="fill:none;stroke:#2ca02c;stroke-width:1.5;stroke-linecap:square;stroke-linejoin:round;stroke-miterlimit:10;stroke-dasharray:none;stroke-opacity:1"
         id="path1017"
         inkscape:connector-curvature="0" /><g
         id="g1019"
         transform="translate(321.8,207.5025)"><text
           transform="matrix(1,0,0,-1,0,0.578125)"
           style="font-style:italic;font-variant:normal;font-size:10px;font-family:DejaVuSans;-inkscape-font-specification:DejaVuSans-Oblique;writing-mode:lr-tb;fill:#000000;fill-opacity:1;fill-rule:nonzero;stroke:none"
           id="text1023"><tspan
             x="0"
             y="0"
             id="tspan1021">t</tspan></text>
<text
           transform="matrix(1,0,0,-1,5.8691406,0.578125)"
           style="font-variant:normal;font-weight:normal;font-size:10px;font-family:DejaVuSans;-inkscape-font-specification:DejaVuSans;writing-mode:lr-tb;fill:#000000;fill-opacity:1;fill-rule:nonzero;stroke:none"
           id="text1027"><tspan
             x="0 10.327148 16.689453 19.868164 26.230469 32.592773 38.955078 45.317383"
             y="0"
             sodipodi:role="line"
             id="tspan1025">=0.18367</tspan></text>
</g><path
         d="m 293.8,196.33062 h 20"
         style="fill:none;stroke:#d62728;stroke-width:1.5;stroke-linecap:square;stroke-linejoin:round;stroke-miterlimit:10;stroke-dasharray:none;stroke-opacity:1"
         id="path1029"
         inkscape:connector-curvature="0" /><g
         id="g1031"
         transform="translate(321.8,192.83062)"><text
           transform="matrix(1,0,0,-1,0,0.578125)"
           style="font-style:italic;font-variant:normal;font-size:10px;font-family:DejaVuSans;-inkscape-font-specification:DejaVuSans-Oblique;writing-mode:lr-tb;fill:#000000;fill-opacity:1;fill-rule:nonzero;stroke:none"
           id="text1035"><tspan
             x="0"
             y="0"
             id="tspan1033">t</tspan></text>
<text
           transform="matrix(1,0,0,-1,5.8691406,0.578125)"
           style="font-variant:normal;font-weight:normal;font-size:10px;font-family:DejaVuSans;-inkscape-font-specification:DejaVuSans;writing-mode:lr-tb;fill:#000000;fill-opacity:1;fill-rule:nonzero;stroke:none"
           id="text1039"><tspan
             x="0 10.327148 16.689453 19.868164 26.230469 32.592773 38.955078 45.317383"
             y="0"
             sodipodi:role="line"
             id="tspan1037">=0.38776</tspan></text>
</g><path
         d="m 293.8,181.65875 h 20"
         style="fill:none;stroke:#9467bd;stroke-width:1.5;stroke-linecap:square;stroke-linejoin:round;stroke-miterlimit:10;stroke-dasharray:none;stroke-opacity:1"
         id="path1041"
         inkscape:connector-curvature="0" /><g
         id="g1043"
         transform="translate(321.8,178.15875)"><text
           transform="matrix(1,0,0,-1,0,0.578125)"
           style="font-style:italic;font-variant:normal;font-size:10px;font-family:DejaVuSans;-inkscape-font-specification:DejaVuSans-Oblique;writing-mode:lr-tb;fill:#000000;fill-opacity:1;fill-rule:nonzero;stroke:none"
           id="text1047"><tspan
             x="0"
             y="0"
             id="tspan1045">t</tspan></text>
<text
           transform="matrix(1,0,0,-1,5.8691406,0.578125)"
           style="font-variant:normal;font-weight:normal;font-size:10px;font-family:DejaVuSans;-inkscape-font-specification:DejaVuSans;writing-mode:lr-tb;fill:#000000;fill-opacity:1;fill-rule:nonzero;stroke:none"
           id="text1051"><tspan
             x="0 10.327148 16.689453 19.868164 26.230469 32.592773 38.955078 45.317383"
             y="0"
             sodipodi:role="line"
             id="tspan1049">=0.59184</tspan></text>
</g><path
         d="m 293.8,166.98687 h 20"
         style="fill:none;stroke:#8c564b;stroke-width:1.5;stroke-linecap:square;stroke-linejoin:round;stroke-miterlimit:10;stroke-dasharray:none;stroke-opacity:1"
         id="path1053"
         inkscape:connector-curvature="0" /><g
         id="g1055"
         transform="translate(321.8,163.48687)"><text
           transform="matrix(1,0,0,-1,0,0.578125)"
           style="font-style:italic;font-variant:normal;font-size:10px;font-family:DejaVuSans;-inkscape-font-specification:DejaVuSans-Oblique;writing-mode:lr-tb;fill:#000000;fill-opacity:1;fill-rule:nonzero;stroke:none"
           id="text1059"><tspan
             x="0"
             y="0"
             id="tspan1057">t</tspan></text>
<text
           transform="matrix(1,0,0,-1,5.8691406,0.578125)"
           style="font-variant:normal;font-weight:normal;font-size:10px;font-family:DejaVuSans;-inkscape-font-specification:DejaVuSans;writing-mode:lr-tb;fill:#000000;fill-opacity:1;fill-rule:nonzero;stroke:none"
           id="text1063"><tspan
             x="0 10.327148 16.689453 19.868164 26.230469 32.592773 38.955078 45.317383"
             y="0"
             sodipodi:role="line"
             id="tspan1061">=0.79592</tspan></text>
</g><path
         d="m 293.8,152.315 h 20"
         style="fill:none;stroke:#e377c2;stroke-width:1.5;stroke-linecap:square;stroke-linejoin:round;stroke-miterlimit:10;stroke-dasharray:none;stroke-opacity:1"
         id="path1065"
         inkscape:connector-curvature="0" /><g
         id="g1067"
         transform="translate(321.8,148.815)"><text
           transform="matrix(1,0,0,-1,0,0.578125)"
           style="font-style:italic;font-variant:normal;font-size:10px;font-family:DejaVuSans;-inkscape-font-specification:DejaVuSans-Oblique;writing-mode:lr-tb;fill:#000000;fill-opacity:1;fill-rule:nonzero;stroke:none"
           id="text1071"><tspan
             x="0"
             y="0"
             id="tspan1069">t</tspan></text>
<text
           transform="matrix(1,0,0,-1,5.8691406,0.578125)"
           style="font-variant:normal;font-weight:normal;font-size:10px;font-family:DejaVuSans;-inkscape-font-specification:DejaVuSans;writing-mode:lr-tb;fill:#000000;fill-opacity:1;fill-rule:nonzero;stroke:none"
           id="text1075"><tspan
             x="0 10.327148 16.689453 19.868164"
             y="0"
             sodipodi:role="line"
             id="tspan1073">=1.0</tspan></text>
</g></g></g></svg>